<svg xmlns="http://www.w3.org/2000/svg" width="217.09" height="20.79" viewBox="0 0 217.09 20.79">
  <g id="Group_3139" data-name="Group 3139" transform="translate(-1087 -454)">
    <text id="learn-descriptions" transform="translate(1087 469)" font-size="14" font-family="SegoeUI, Segoe UI" opacity="0.3"><tspan x="0" y="0">(23) REVIEWS</tspan></text>
    <g id="Group_208" data-name="Group 208" transform="translate(1184.55 454)">
      <path id="path-11" d="M10.395,0l2.453,7.941H20.79l-6.424,4.907,2.453,7.941L10.395,15.88,3.971,20.79l2.453-7.941L0,7.941H7.942Z" fill="#f26c19"/>
      <path id="path-11-2" data-name="path-11" d="M10.395,0l2.453,7.941H20.79l-6.424,4.907,2.453,7.941L10.395,15.88,3.971,20.79l2.453-7.941L0,7.941H7.942Z" transform="translate(24.688)" fill="#f26c19"/>
      <path id="path-11-3" data-name="path-11" d="M10.395,0l2.453,7.941H20.79l-6.424,4.907,2.453,7.941L10.395,15.88,3.971,20.79l2.453-7.941L0,7.941H7.942Z" transform="translate(49.376)" fill="#f26c19"/>
      <path id="path-11-4" data-name="path-11" d="M10.395,0l2.453,7.941H20.79l-6.424,4.907,2.453,7.941L10.395,15.88,3.971,20.79l2.453-7.941L0,7.941H7.942Z" transform="translate(74.063)" fill="#f26c19"/>
      <path id="path-11-5" data-name="path-11" d="M10.395,0l2.453,7.941H20.79l-6.424,4.907,2.453,7.941L10.395,15.88,3.971,20.79l2.453-7.941L0,7.941H7.942Z" transform="translate(98.751)" fill="#f26c19"/>
    </g>
  </g>
</svg>
