<svg xmlns="http://www.w3.org/2000/svg" width="16.368" height="16.368" viewBox="0 0 16.368 16.368">
  <path id="Instagram" d="M8.184,1.455a25.093,25.093,0,0,1,3.274.091A4.218,4.218,0,0,1,13,1.819a3.193,3.193,0,0,1,1.546,1.546,4.218,4.218,0,0,1,.273,1.546c0,.818.091,1.091.091,3.274a25.093,25.093,0,0,1-.091,3.274A4.218,4.218,0,0,1,14.549,13,3.193,3.193,0,0,1,13,14.549a4.218,4.218,0,0,1-1.546.273c-.818,0-1.091.091-3.274.091a25.093,25.093,0,0,1-3.274-.091,4.218,4.218,0,0,1-1.546-.273A3.193,3.193,0,0,1,1.819,13a4.218,4.218,0,0,1-.273-1.546c0-.818-.091-1.091-.091-3.274A25.093,25.093,0,0,1,1.546,4.91a4.218,4.218,0,0,1,.273-1.546,3.266,3.266,0,0,1,.637-.909,1.537,1.537,0,0,1,.909-.637A4.218,4.218,0,0,1,4.91,1.546a25.093,25.093,0,0,1,3.274-.091M8.184,0A26.868,26.868,0,0,0,4.819.091a5.614,5.614,0,0,0-2,.364,3.56,3.56,0,0,0-1.455.909A3.56,3.56,0,0,0,.455,2.819a4.143,4.143,0,0,0-.364,2A26.868,26.868,0,0,0,0,8.184a26.868,26.868,0,0,0,.091,3.364,5.614,5.614,0,0,0,.364,2A3.56,3.56,0,0,0,1.364,15a3.56,3.56,0,0,0,1.455.909,5.614,5.614,0,0,0,2,.364,26.868,26.868,0,0,0,3.364.091,26.868,26.868,0,0,0,3.364-.091,5.614,5.614,0,0,0,2-.364,3.815,3.815,0,0,0,2.364-2.364,5.614,5.614,0,0,0,.364-2c0-.909.091-1.182.091-3.364a26.868,26.868,0,0,0-.091-3.364,5.614,5.614,0,0,0-.364-2A3.56,3.56,0,0,0,15,1.364,3.56,3.56,0,0,0,13.549.455a5.614,5.614,0,0,0-2-.364A26.868,26.868,0,0,0,8.184,0m0,4A4.115,4.115,0,0,0,4,8.184,4.183,4.183,0,1,0,8.184,4m0,6.911A2.679,2.679,0,0,1,5.456,8.184,2.679,2.679,0,0,1,8.184,5.456a2.679,2.679,0,0,1,2.728,2.728,2.679,2.679,0,0,1-2.728,2.728m4.365-8.093a1,1,0,1,0,1,1,1.009,1.009,0,0,0-1-1" fill="#727272" fill-rule="evenodd"/>
</svg>
