<svg xmlns="http://www.w3.org/2000/svg" width="111.43" height="16.368" viewBox="0 0 111.43 16.368">
  <g id="Social_Media" data-name="Social Media" transform="translate(-1316.57 -2631)">
    <path id="Path_1" data-name="Path 1" d="M85.547,16.368V8.911h2.546L88.457,6h-2.91V4.183c0-.818.273-1.455,1.455-1.455h1.546V.091C88.184.091,87.274,0,86.274,0a3.51,3.51,0,0,0-3.728,3.819V6H80v2.91h2.546v7.456Z" transform="translate(1339.453 2631)" fill="#727272" fill-rule="evenodd"/>
    <path id="Path_2" data-name="Path 2" d="M43.183,15.276a9.463,9.463,0,0,0,9.548-9.548V5.274a7.391,7.391,0,0,0,1.637-1.728,7.548,7.548,0,0,1-1.91.546,3.538,3.538,0,0,0,1.455-1.819,8.341,8.341,0,0,1-2.091.818A3.247,3.247,0,0,0,49.366,2,3.416,3.416,0,0,0,46,5.364a1.773,1.773,0,0,0,.091.727,9.4,9.4,0,0,1-6.911-3.546,3.482,3.482,0,0,0-.455,1.728,3.613,3.613,0,0,0,1.455,2.819,3.065,3.065,0,0,1-1.546-.455h0a3.323,3.323,0,0,0,2.728,3.274,2.8,2.8,0,0,1-.909.091,1.547,1.547,0,0,1-.637-.091A3.445,3.445,0,0,0,43,12.275a6.865,6.865,0,0,1-4.183,1.455A2.517,2.517,0,0,1,38,13.639a8.583,8.583,0,0,0,5.183,1.637" transform="translate(1330.011 2631)" fill="#727272" fill-rule="evenodd"/>
    <path id="Path_3" data-name="Path 3" d="M8.184,1.455a25.093,25.093,0,0,1,3.274.091A4.218,4.218,0,0,1,13,1.819a3.193,3.193,0,0,1,1.546,1.546,4.218,4.218,0,0,1,.273,1.546c0,.818.091,1.091.091,3.274a25.093,25.093,0,0,1-.091,3.274A4.218,4.218,0,0,1,14.549,13,3.193,3.193,0,0,1,13,14.549a4.218,4.218,0,0,1-1.546.273c-.818,0-1.091.091-3.274.091a25.093,25.093,0,0,1-3.274-.091,4.218,4.218,0,0,1-1.546-.273A3.193,3.193,0,0,1,1.819,13a4.218,4.218,0,0,1-.273-1.546c0-.818-.091-1.091-.091-3.274A25.093,25.093,0,0,1,1.546,4.91a4.218,4.218,0,0,1,.273-1.546,3.266,3.266,0,0,1,.637-.909,1.537,1.537,0,0,1,.909-.637A4.218,4.218,0,0,1,4.91,1.546a25.093,25.093,0,0,1,3.274-.091M8.184,0A26.868,26.868,0,0,0,4.819.091a5.614,5.614,0,0,0-2,.364,3.56,3.56,0,0,0-1.455.909A3.56,3.56,0,0,0,.455,2.819a4.143,4.143,0,0,0-.364,2A26.868,26.868,0,0,0,0,8.184a26.868,26.868,0,0,0,.091,3.364,5.614,5.614,0,0,0,.364,2A3.56,3.56,0,0,0,1.364,15a3.56,3.56,0,0,0,1.455.909,5.614,5.614,0,0,0,2,.364,26.868,26.868,0,0,0,3.364.091,26.868,26.868,0,0,0,3.364-.091,5.614,5.614,0,0,0,2-.364,3.815,3.815,0,0,0,2.364-2.364,5.614,5.614,0,0,0,.364-2c0-.909.091-1.182.091-3.364a26.868,26.868,0,0,0-.091-3.364,5.614,5.614,0,0,0-.364-2A3.56,3.56,0,0,0,15,1.364,3.56,3.56,0,0,0,13.549.455a5.614,5.614,0,0,0-2-.364A26.868,26.868,0,0,0,8.184,0m0,4A4.115,4.115,0,0,0,4,8.184,4.183,4.183,0,1,0,8.184,4m0,6.911A2.679,2.679,0,0,1,5.456,8.184,2.679,2.679,0,0,1,8.184,5.456a2.679,2.679,0,0,1,2.728,2.728,2.679,2.679,0,0,1-2.728,2.728m4.365-8.093a1,1,0,1,0,1,1,1.009,1.009,0,0,0-1-1" transform="translate(1316.57 2631)" fill="#727272" fill-rule="evenodd"/>
  </g>
</svg>
