<svg xmlns="http://www.w3.org/2000/svg" width="115" height="16" viewBox="0 0 115 16">
  <g id="Stars" transform="translate(-422 -1171)">
    <text id="learn-descriptions" transform="translate(520 1183)" fill="#727272" font-size="10" font-family="SegoeUI, Segoe UI"><tspan x="0" y="0">(23)</tspan></text>
    <g id="Group_208" data-name="Group 208" transform="translate(14664 12700)">
      <path id="path-11" d="M8,0,9.888,6.112H16L11.056,9.888,12.944,16,8,12.222,3.056,16,4.944,9.888,0,6.112H6.112Z" transform="translate(-14242 -11529)" fill="#f26c19"/>
      <path id="path-11-2" data-name="path-11" d="M8,0,9.888,6.112H16L11.056,9.888,12.944,16,8,12.222,3.056,16,4.944,9.888,0,6.112H6.112Z" transform="translate(-14223 -11529)" fill="#f26c19"/>
      <path id="path-11-3" data-name="path-11" d="M8,0,9.888,6.112H16L11.056,9.888,12.944,16,8,12.222,3.056,16,4.944,9.888,0,6.112H6.112Z" transform="translate(-14204 -11529)" fill="#f26c19"/>
      <path id="path-11-4" data-name="path-11" d="M8,0,9.888,6.112H16L11.056,9.888,12.944,16,8,12.222,3.056,16,4.944,9.888,0,6.112H6.112Z" transform="translate(-14185 -11529)" fill="#f26c19"/>
      <path id="path-11-5" data-name="path-11" d="M8,0,9.888,6.112H16L11.056,9.888,12.944,16,8,12.222,3.056,16,4.944,9.888,0,6.112H6.112Z" transform="translate(-14166 -11529)" fill="#f26c19"/>
    </g>
  </g>
</svg>
