<svg xmlns="http://www.w3.org/2000/svg" width="16.368" height="13.276" viewBox="0 0 16.368 13.276">
  <path id="Twitter" d="M43.183,15.276a9.463,9.463,0,0,0,9.548-9.548V5.274a7.391,7.391,0,0,0,1.637-1.728,7.548,7.548,0,0,1-1.91.546,3.538,3.538,0,0,0,1.455-1.819,8.341,8.341,0,0,1-2.091.818A3.247,3.247,0,0,0,49.366,2,3.416,3.416,0,0,0,46,5.364a1.773,1.773,0,0,0,.091.727,9.4,9.4,0,0,1-6.911-3.546,3.482,3.482,0,0,0-.455,1.728,3.613,3.613,0,0,0,1.455,2.819,3.065,3.065,0,0,1-1.546-.455h0a3.323,3.323,0,0,0,2.728,3.274,2.8,2.8,0,0,1-.909.091,1.547,1.547,0,0,1-.637-.091A3.445,3.445,0,0,0,43,12.275a6.865,6.865,0,0,1-4.183,1.455A2.517,2.517,0,0,1,38,13.639a8.583,8.583,0,0,0,5.183,1.637" transform="translate(-38 -2)" fill="#727272" fill-rule="evenodd"/>
</svg>
